<svg width="1920" height="495" viewBox="0 0 1920 495" fill="none" xmlns="http://www.w3.org/2000/svg">
<path fill-rule="evenodd" clip-rule="evenodd" d="M775.583 315.556C782.715 310.022 789.111 302.902 787.662 293.932C782.353 292.146 772.56 292.321 769.487 300.753C770.673 291.159 767.413 284.651 762.129 279.554C755.396 284.963 751.523 290.785 751.861 297.218C747.813 291.134 742.092 288.024 734.834 287.637C733.772 290.198 733.11 292.608 732.91 294.844C729.5 295.157 726.14 296.031 723.104 297.493C733.323 289.723 737.382 280.379 738.632 270.31C727.439 269.424 718.62 275.857 710.887 285.6C716.658 275.707 720.793 264.289 714.81 254.396C707.689 254.783 696.209 259.605 696.621 271.022C693.449 259.143 686.491 252.997 677.809 249.461C672.437 259.018 670.663 267.712 674.136 275.157C666.454 269.886 658.209 268.911 649.465 271.859C649.465 272.796 649.465 273.708 649.527 274.595C648.253 275.045 647.041 275.669 645.905 276.431C644.118 276.306 642.307 276.419 640.495 276.744C640.346 273.995 639.896 271.46 639.171 269.099C640.433 266.263 640.983 263.19 640.446 259.855C638.584 259.23 636.186 258.855 633.712 258.98C632.663 257.669 631.526 256.432 630.302 255.245C627.229 257.706 624.618 260.242 622.495 262.84C622.495 255.295 619.447 249.861 614.9 245.464C608.154 250.873 604.294 256.694 604.631 263.128C600.584 257.044 594.863 253.934 587.605 253.546C586.543 256.107 585.881 258.518 585.681 260.754C582.271 261.066 578.911 261.941 575.875 263.402C586.093 255.632 590.153 246.289 591.402 236.22C580.21 235.333 571.391 241.766 563.658 251.51C569.429 241.617 573.564 230.199 567.581 220.305C560.46 220.693 548.98 225.515 549.392 236.932C546.219 225.052 539.261 218.906 530.58 215.371C525.208 224.927 523.434 233.622 526.907 241.067C519.224 235.795 510.98 234.821 502.236 237.769C502.236 238.706 502.236 239.618 502.298 240.505C498.313 241.929 494.79 244.777 492.979 249.724C494.578 236.795 490.193 228.038 483.073 221.155C477.552 225.589 473.479 230.224 471.218 235.121C467.958 234.109 463.848 234.021 460.8 236.457C460.388 236.195 459.963 235.933 459.526 235.695C460.7 229.774 459.176 225.015 456.303 220.818C450.069 224.015 446.047 228 445.26 233.16C443.037 227.663 439.002 224.265 433.318 222.766C432.056 224.628 431.132 226.426 430.62 228.175C427.871 227.863 425.048 228.013 422.4 228.675C431.781 224.178 436.528 217.42 439.177 209.637C430.432 207.102 422.388 210.762 414.655 217.245C420.851 210.337 426.01 201.942 422.875 193.111C417.153 192.261 407.26 194.21 405.723 203.329C405.149 193.373 400.627 187.364 394.318 183.142C388.497 189.85 385.661 196.471 387.198 202.942C381.951 197.495 375.568 195.384 368.148 196.296C367.985 197.033 367.861 197.758 367.748 198.47C364.35 198.957 361.09 200.631 358.854 204.266C362.239 194.272 360.178 186.59 355.656 179.969C347.261 184.266 341.84 189.65 340.778 196.608C337.793 189.201 332.346 184.629 324.689 182.605C319.317 190.487 318.605 197.645 324.676 203.704C319.667 201.218 314.745 200.368 309.898 201.13C310.098 200.231 310.248 199.294 310.286 198.307C307.412 196.633 302.865 195.322 298.656 196.121C298.031 194.397 297.157 192.773 296.107 191.224C294.858 191.861 293.696 192.536 292.634 193.248C292.784 187.827 291.011 183.23 288.175 179.082C280.742 182.892 275.87 187.614 274.684 193.685C274.534 193.635 274.371 193.585 274.221 193.535C271.423 187.214 266.564 183.267 259.818 181.493C258.257 183.792 257.12 186.015 256.483 188.164C253.085 187.777 249.613 187.964 246.352 188.788C257.932 183.23 263.778 174.897 267.039 165.291C256.258 162.168 246.327 166.69 236.783 174.685C244.428 166.166 250.787 155.81 246.927 144.905C239.869 143.855 227.664 146.266 225.753 157.521C225.041 145.242 219.457 137.822 211.675 132.613C204.492 140.895 200.994 149.052 202.893 157.034C196.422 150.314 188.552 147.703 179.396 148.839C179.196 149.751 179.033 150.651 178.909 151.525C174.711 152.125 170.689 154.198 167.928 158.683C172.1 146.354 169.565 136.872 163.981 128.703C153.625 134.012 146.942 140.645 145.63 149.227C141.945 140.095 135.237 134.436 125.768 131.95C119.147 141.682 118.261 150.501 125.756 157.984C115.725 153.012 105.956 153.324 96.4497 158.908C96.4497 159.795 96.4747 160.657 96.5372 161.494C95.3754 162.318 94.3261 163.417 93.4392 164.842C96.5372 155.685 94.6634 148.652 90.5161 142.594C83.5456 146.166 78.8362 150.538 77.2872 156.072C76.9624 156.197 76.6251 156.335 76.3128 156.484C73.4772 150.488 68.7053 146.728 62.1595 145.004C61.7473 145.604 61.385 146.204 61.0353 146.803C60.3482 146.241 59.6362 145.704 58.8992 145.204C53.9524 150.776 51.1792 156.297 51.4165 161.744C50.642 161.756 49.8676 161.818 49.0931 161.918C44.6085 158.408 39.3494 157.072 33.3658 157.759C32.7412 160.469 32.5038 162.955 32.6912 165.179C29.3809 166.053 26.2204 167.49 23.4722 169.439C32.2415 160.057 34.6649 150.164 34.2027 140.033C23.0225 141.045 15.415 148.864 9.43138 159.782C13.4538 149.064 15.6148 137.11 8.05726 128.353C1.09929 129.939 -9.39387 136.622 -7.08288 147.803C-9.88105 141.694 -13.5162 137.472 -17.726 134.561V561.059L684.067 366.91L742.691 362.975C744.628 361.751 798.955 314.894 800.304 312.483C792.397 308.573 784.077 310.697 775.558 315.556H775.583Z" fill="#101024"/>
<path fill-rule="evenodd" clip-rule="evenodd" d="M1926.95 149.726C1925.91 150.651 1924.93 151.688 1924.02 152.874C1924.83 146.478 1921.41 140.395 1915.08 134.499C1909.43 139.196 1905.7 145.454 1906.18 155.098C1905.72 153.486 1905.01 152.137 1904.12 151.026C1904.41 150.239 1904.67 149.414 1904.91 148.565C1897.28 140.595 1887.97 137.622 1876.97 139.67C1886.22 134.511 1887.77 125.792 1884.06 114.624C1874.28 114.437 1866.28 118.035 1860.24 125.817C1861.33 117.21 1856.72 109.003 1848.2 101.058C1840.59 107.391 1835.57 115.811 1836.22 128.815C1834.78 123.743 1831.48 120.658 1827.61 118.934C1827.72 118.059 1827.81 117.148 1827.87 116.211C1819.38 112.626 1811.08 112.975 1803.03 117.672C1807.04 110.514 1805.9 101.708 1801.25 91.7766C1792.35 94.6622 1784.95 100.271 1780.9 111.888C1782.15 100.546 1771.06 94.8871 1763.99 93.9752C1757.29 103.407 1760.58 115.099 1765.61 125.392C1758.62 115.099 1750.3 108.041 1739.07 108.091C1739.58 118.222 1742.94 127.841 1752.56 136.348C1749.65 134.661 1746.35 133.537 1742.98 132.987C1742.95 130.751 1742.47 128.29 1741.59 125.667C1735.57 125.555 1730.46 127.378 1726.33 131.301C1725.55 131.276 1724.78 131.288 1724 131.338C1723.72 125.892 1720.43 120.67 1714.97 115.586C1714.28 116.161 1713.62 116.76 1713 117.385C1712.6 116.823 1712.17 116.273 1711.7 115.711C1705.35 118.047 1700.96 122.244 1698.71 128.49C1698.37 128.365 1698.03 128.265 1697.69 128.165C1695.63 122.806 1690.51 118.896 1683.24 116.011C1679.69 122.444 1678.48 129.614 1682.44 138.434C1681.43 137.097 1680.28 136.098 1679.04 135.386C1679.02 134.549 1678.97 133.687 1678.88 132.812C1668.88 128.153 1659.12 128.777 1649.61 134.686C1656.36 126.516 1654.64 117.822 1647.12 108.766C1637.93 112.138 1631.8 118.409 1628.99 127.853C1626.88 119.434 1619.6 113.462 1608.77 109.165C1603.98 117.835 1602.36 127.503 1607.69 139.383C1604.52 135.186 1600.31 133.499 1596.09 133.312C1595.87 132.45 1595.62 131.576 1595.34 130.689C1586.12 130.439 1578.52 133.787 1572.73 141.082C1573.86 132.95 1569.6 125.167 1561.66 117.61C1554.4 123.531 1549.55 131.451 1550.02 143.743C1547.06 132.725 1534.66 131.476 1527.74 133.2C1524.93 144.417 1532.25 154.124 1540.67 161.881C1530.42 154.836 1520.1 151.275 1509.65 155.41C1513.81 164.654 1520.44 172.399 1532.49 176.821C1529.17 176.309 1525.68 176.459 1522.35 177.171C1521.51 175.097 1520.17 172.986 1518.4 170.85C1511.85 173.261 1507.39 177.646 1505.21 184.204C1505.06 184.266 1504.91 184.329 1504.76 184.391C1503 178.47 1497.69 174.223 1489.93 171.15C1487.51 175.547 1486.17 180.294 1486.84 185.678C1485.72 185.078 1484.51 184.516 1483.2 183.992C1482.3 185.628 1481.57 187.327 1481.12 189.101C1476.85 188.713 1472.45 190.45 1469.76 192.386C1469.89 193.36 1470.12 194.272 1470.42 195.159C1465.52 194.86 1460.7 196.184 1455.95 199.119C1461.42 192.499 1460.02 185.453 1453.93 178.108C1446.5 180.844 1441.51 185.928 1439.24 193.573C1437.53 186.752 1431.62 181.918 1422.85 178.433C1418.98 185.453 1417.65 193.298 1421.97 202.917C1419.4 199.506 1415.99 198.145 1412.57 197.995C1412.39 197.295 1412.19 196.583 1411.97 195.871C1404.5 195.659 1398.34 198.382 1393.64 204.303C1394.55 197.72 1391.11 191.399 1384.67 185.278C1378.79 190.088 1374.87 196.496 1375.24 206.464C1372.84 197.533 1362.8 196.521 1357.19 197.92C1354.92 207.014 1360.84 214.871 1367.67 221.167C1359.35 215.459 1351 212.573 1342.54 215.933C1345.91 223.428 1351.28 229.699 1361.05 233.297C1358.35 232.885 1355.54 233.01 1352.83 233.584C1352.14 231.898 1351.07 230.187 1349.63 228.463C1344.11 230.486 1340.41 234.259 1338.73 239.943C1337.45 234.883 1333.07 231.286 1326.56 228.7C1324.1 233.147 1323.05 238.031 1324.78 243.815C1324.38 244.102 1323.98 244.39 1323.58 244.69C1320.3 242.541 1316.23 243.028 1313.07 244.34C1310.36 239.68 1305.86 235.446 1299.94 231.561C1293.51 239.081 1289.97 248.225 1292.8 260.942C1290.53 256.182 1286.76 253.696 1282.65 252.647C1282.61 251.76 1282.55 250.861 1282.45 249.924C1273.47 247.812 1265.36 249.561 1258.21 255.545C1260.95 247.812 1258.36 239.331 1252.1 230.324C1243.8 234.671 1237.46 241.442 1235.42 253.571C1234.75 242.179 1222.87 238.469 1215.73 238.756C1210.71 249.174 1215.93 260.154 1222.62 269.448C1213.98 260.479 1204.6 254.92 1193.55 256.869C1195.76 266.763 1200.68 275.682 1211.6 282.452C1208.44 281.278 1205 280.729 1201.59 280.754C1201.19 278.555 1200.31 276.219 1198.99 273.771C1191.81 274.845 1186.42 278.493 1182.97 284.938C1182.69 278.505 1178.28 273.071 1171.06 268.324C1166.95 273.133 1164.44 278.83 1165.15 286.337C1162.81 283.952 1159.96 281.678 1156.66 279.517C1155.55 280.816 1154.54 282.153 1153.62 283.552C1151.15 283.664 1148.79 284.264 1147 285.063C1146.79 288.436 1147.63 291.447 1149.15 294.145C1148.65 296.556 1148.44 299.117 1148.56 301.877C1146.73 301.727 1144.92 301.79 1143.14 302.09C1141.94 301.44 1140.67 300.94 1139.36 300.603C1139.32 299.716 1139.26 298.817 1139.16 297.88C1130.18 295.769 1122.07 297.518 1114.91 303.501C1117.66 295.769 1115.06 287.287 1108.8 278.28C1100.51 282.627 1094.16 289.398 1092.13 301.528C1091.45 290.135 1079.56 286.425 1072.44 286.712C1067.42 297.13 1072.64 308.111 1079.32 317.405C1070.69 308.436 1061.31 302.877 1050.25 304.825C1052.46 314.719 1057.39 323.638 1068.3 330.409C1065.14 329.235 1061.71 328.685 1058.3 328.71C1057.9 326.511 1057.01 324.175 1055.7 321.727C1048.52 322.801 1043.12 326.449 1039.67 332.895C1039.4 326.461 1034.99 321.027 1027.77 316.28C1023 321.864 1020.37 328.647 1022.47 338.091C1018.61 329.984 1008.84 330.746 1003.73 333.032C1003.15 342.089 1010.19 348.572 1017.81 353.406C1008.87 349.384 1000.37 348.06 992.879 352.707C994.44 354.968 1052.99 396.453 1055.03 397.478L1113.76 395.816L1910.43 536.287L1926.96 442.573V149.701L1926.95 149.726Z" fill="#101024"/>
<path fill-rule="evenodd" clip-rule="evenodd" d="M1926.95 480.461V341.639H1923.45C1925.36 338.216 1925.13 333.882 1923.27 328.86C1916.71 328.972 1911.44 331.608 1907.58 337.017C1908.1 331.183 1904.8 325.762 1898.9 320.615C1893.95 325.075 1890.79 330.883 1891.56 339.653C1890.47 336.267 1888.18 334.269 1885.55 333.207C1885.6 332.607 1885.63 331.995 1885.66 331.371C1879.88 329.16 1874.33 329.609 1869.05 332.982C1871.56 328.048 1870.58 322.139 1867.21 315.556C1861.31 317.73 1856.49 321.702 1854.07 329.647C1854.62 321.964 1847.05 318.417 1842.29 317.979C1838.03 324.513 1840.53 332.32 1844.15 339.141C1839.2 332.37 1833.46 327.811 1825.94 328.135C1826.35 332.895 1827.7 337.454 1830.73 341.652H1828.62C1828.46 341.089 1828.28 340.515 1828.07 339.928C1825.52 339.978 1823.24 340.552 1821.23 341.652H1819.68C1819.5 341.027 1819.3 340.402 1819.07 339.753C1817.73 339.778 1816.44 339.928 1815.23 340.19C1814.13 337.991 1812.36 335.855 1809.98 333.794C1807.66 335.905 1805.87 338.416 1805.02 341.639H1804.3C1803.13 338.416 1800.69 335.343 1797.28 332.37C1794.51 334.868 1792.37 337.842 1791.32 341.639H1786.59C1780.83 337.342 1774.18 336.03 1766.66 337.742C1773.98 333.27 1774.98 326.124 1771.65 317.155C1763.74 317.292 1757.39 320.465 1752.75 326.974C1753.37 319.941 1749.4 313.407 1742.28 307.211C1736.32 312.595 1732.51 319.591 1733.42 330.146C1732.11 326.062 1729.35 323.651 1726.18 322.377C1726.24 321.665 1726.29 320.915 1726.3 320.153C1719.33 317.492 1712.65 318.042 1706.28 322.102C1709.3 316.156 1708.13 309.035 1704.07 301.103C1696.96 303.714 1691.15 308.511 1688.24 318.079C1688.9 308.81 1679.78 304.551 1674.04 304.026C1668.91 311.896 1671.91 321.315 1676.28 329.522C1670.33 321.365 1663.4 315.868 1654.34 316.268C1654.87 322.389 1656.67 328.235 1660.88 333.557C1660.79 334.606 1660.79 335.718 1660.87 336.88C1660.78 336.855 1660.71 336.83 1660.62 336.817C1660.23 335.868 1659.72 335.043 1659.12 334.356C1659.33 333.707 1659.52 333.032 1659.68 332.333C1653.52 326.324 1646.25 324.138 1637.85 325.749C1637.76 325.649 1637.66 325.562 1637.57 325.462C1644.2 320.965 1645.04 314.02 1641.83 305.363C1633.92 305.5 1627.58 308.673 1622.93 315.181C1623.56 308.148 1619.58 301.615 1612.46 295.419C1606.5 300.803 1602.69 307.799 1603.61 318.354C1602.29 314.269 1599.53 311.858 1596.36 310.584C1596.42 309.872 1596.47 309.123 1596.49 308.361C1589.52 305.7 1582.83 306.25 1576.46 310.309C1579.48 304.363 1578.31 297.243 1574.25 289.311C1567.14 291.921 1561.33 296.718 1558.41 306.287C1559.07 297.018 1549.95 292.758 1544.21 292.234C1539.07 300.104 1542.08 309.522 1546.46 317.73C1540.5 309.572 1533.58 304.076 1524.51 304.476C1525.22 312.695 1528.22 320.415 1536.25 327.036C1533.85 325.749 1531.15 324.937 1528.42 324.588C1528.33 322.764 1527.87 320.79 1527.08 318.679C1521.21 318.779 1516.5 321.14 1513.05 325.974C1513.51 320.753 1510.57 315.906 1505.28 311.309C1500.86 315.306 1498.04 320.503 1498.71 328.335C1496.49 321.377 1488.58 320.953 1484.23 322.252C1483.38 326.524 1484.78 330.359 1487.21 333.757C1484.67 334.181 1482.17 334.794 1479.71 335.556C1477.61 335.581 1475.53 336.018 1473.45 336.955C1473.58 337.192 1473.72 337.429 1473.84 337.667C1472.4 338.254 1470.98 338.878 1469.57 339.553C1471.32 326.511 1466.46 316.555 1451.95 311.134C1443.52 318.079 1436.9 326.074 1439.03 339.116C1434.28 334.781 1428.05 333.369 1421.44 333.22C1421.66 329.947 1421.21 326.736 1420.31 323.563C1408.68 326.062 1401.49 332.77 1396.53 341.652H1395.63C1397.49 332.682 1396.69 323.551 1387.23 317.954C1380.66 320.078 1371.89 325.674 1371.91 332.807C1361.76 323.388 1347.91 321.964 1336.59 324.75C1345.31 320.49 1351.32 314.469 1353.36 305.875C1338.09 300.828 1324.35 303.539 1311.31 309.772C1313.06 296.731 1308.2 286.775 1293.7 281.353C1285.26 288.299 1278.64 296.294 1280.77 309.335C1272.4 301.678 1259.39 303.164 1247.86 304.488C1247.25 308.648 1247.1 312.808 1248.35 316.73C1241.17 318.542 1234.15 321.877 1227.43 328.098C1229.39 318.142 1219.27 312.346 1210.31 307.211C1200.31 313.17 1191.77 320.378 1194.4 332.32C1191.45 323.913 1182.33 321.053 1169.01 321.989C1167.44 326.024 1167.1 329.859 1168.06 333.494C1165.64 335.793 1163.63 338.566 1161.91 341.676H1160.31L1160.17 341.452C1161.07 333.494 1159.76 325.662 1152.67 320.44C1146.38 322.664 1137.66 329.322 1140.31 338.029L1139.85 338.191C1136.85 334.581 1133.54 332.02 1130.01 330.234C1130.34 328.473 1130.39 326.624 1130.14 324.663C1121.44 320.977 1108.5 323.563 1100.81 330.221C1107.97 320.865 1108.78 311.921 1106.69 303.189C1095.79 305.612 1089.52 313.457 1085.36 323.763C1087.62 313.895 1087.82 303.202 1078.92 296.643C1072.29 298.979 1062.97 306.237 1067.08 315.631C1060.2 306.624 1051.59 303.464 1042.22 302.977C1040.8 309.772 1040.98 315.681 1043.31 320.403C1034.75 319.516 1026.74 321.889 1019.02 326.024C1020.47 313.033 1016.39 302.939 1004.2 297.106C997.126 303.814 991.579 311.621 993.378 324.713C989.393 320.24 984.159 318.666 978.613 318.317C978.788 315.056 978.413 311.833 977.651 308.636C966.746 311.059 960.475 318.904 956.315 329.21C958.576 319.341 958.776 308.648 949.882 302.09C944.373 304.026 937.003 309.373 937.027 316.505C928.508 306.799 916.866 304.988 907.372 307.461C914.692 303.451 919.726 297.593 921.425 289.061C908.609 283.589 897.078 285.913 886.136 291.771C887.585 278.78 883.5 268.686 871.308 262.853C864.237 269.561 858.691 277.368 860.49 290.46C853.457 282.565 842.539 283.689 832.858 284.689C832.346 288.823 832.233 292.983 833.283 296.931C827.261 298.542 821.365 301.678 815.731 307.699C817.368 297.805 808.861 291.722 801.328 286.325C792.934 292.009 785.788 298.967 788 310.984C785.514 302.49 777.856 299.379 766.676 299.941C764.115 307.699 765.489 314.857 771.173 321.352C763.515 318.629 754.834 320.553 745.452 325.649C747.076 328.672 749.112 331.433 751.786 333.794C748.888 335.88 746.477 338.554 744.44 341.652H741.355C741.742 334.519 740.043 327.698 733.66 322.989C727.364 325.212 718.645 331.87 721.293 340.577L720.831 340.74C717.833 337.129 714.522 334.569 711 332.782C711.324 331.021 711.374 329.172 711.125 327.211C702.43 323.526 689.489 326.112 681.794 332.77C688.951 323.413 689.763 314.469 687.677 305.737C676.772 308.161 670.501 316.006 666.341 326.312C668.602 316.443 668.802 305.75 659.908 299.192C653.275 301.528 643.956 308.785 648.066 318.179C641.183 309.173 632.576 306.012 623.207 305.525C621.783 312.321 621.97 318.229 624.294 322.951C615.737 322.064 607.729 324.438 599.997 328.572C601.446 315.581 597.361 305.488 585.169 299.654C578.099 306.362 572.552 314.169 574.351 327.261C570.366 322.789 565.132 321.215 559.586 320.865C559.761 317.605 559.386 314.382 558.624 311.184C547.718 313.607 541.448 321.452 537.288 331.758C539.549 321.889 539.749 311.196 530.854 304.638C525.345 306.574 517.975 311.921 518 319.054C509.481 309.348 497.838 307.536 488.345 310.01C495.665 306 500.699 300.141 502.398 291.609C489.581 286.138 478.051 288.461 467.108 294.32C468.557 281.328 464.473 271.235 452.281 265.401C445.21 272.109 439.664 279.917 441.463 293.008C434.43 285.113 423.512 286.238 413.831 287.237C413.318 291.372 413.206 295.532 414.255 299.492C408.234 301.103 402.338 304.238 396.704 310.26C398.341 300.366 389.834 294.282 382.301 288.886C373.907 294.57 366.761 301.528 368.972 313.545C366.486 305.05 358.829 301.94 347.649 302.502C345.338 309.51 346.237 316.031 350.622 322.014C349.722 322.277 348.848 322.576 347.998 322.901C342.152 322.077 335.794 323.588 329.061 326.849C327.999 322.501 325.426 318.592 320.466 315.668C312.559 318.229 301.454 325.799 306.326 335.056C298.143 326.274 287.9 323.413 276.732 323.226C275.033 330.072 275.246 335.98 278.007 340.627C267.826 340.028 258.269 342.676 249.063 347.073C250.812 334.032 245.952 324.075 231.449 318.654C223.017 325.599 216.397 333.594 218.52 346.636C213.773 342.301 207.54 340.902 200.932 340.74C201.157 337.467 200.707 334.256 199.807 331.083C186.816 333.869 179.333 341.926 174.361 352.382C177.06 342.439 177.335 331.733 166.741 325.475C160.171 327.598 151.401 333.195 151.414 340.327C141.271 330.909 127.417 329.484 116.099 332.27C124.819 328.01 130.827 321.989 132.864 313.395C117.598 308.348 103.857 311.059 90.8159 317.292C92.5647 304.251 87.7054 294.295 73.2023 288.873C64.7703 295.819 58.1497 303.814 60.2733 316.855C52.2285 309.497 39.899 310.584 28.7188 311.858V480.499L693.311 476.414V480.499H1927.05L1926.95 480.461ZM762.279 339.69C764.028 340.277 765.939 340.765 768 341.152C766.588 341.164 765.302 341.352 764.115 341.639H762.054C762.141 340.99 762.241 340.34 762.291 339.69H762.279ZM327.986 342.576C328.836 339.428 329.448 336.217 329.548 333.095C330.272 333.994 331.072 334.856 331.921 335.668C330.447 337.817 329.148 340.128 327.986 342.576Z" fill="#101024"/>
<path d="M160.071 157.996C169.452 159.408 176.46 163.055 181.807 167.39C186.191 170.938 189.664 175.035 193.124 179.12C193.599 179.682 194.074 180.244 194.536 180.819H234.06C234.273 180.482 234.472 180.144 234.685 179.807C237.558 175.223 240.431 170.638 244.241 166.441C248.888 161.319 255.196 156.61 264.003 153.724C253.91 155.498 246.252 159.333 240.106 163.792C237.42 165.741 234.922 167.802 232.549 169.913C232.736 169.239 232.911 168.552 233.098 167.877C235.297 159.932 237.508 151.975 241.043 144.168C245.365 134.636 251.973 124.943 262.454 116.773C249.937 123.931 241.293 132.95 234.797 142.207C231.574 146.804 228.726 151.475 226.078 156.172C226.378 153.874 226.677 151.575 226.99 149.289C227.727 143.868 228.451 138.446 229.238 133.025C229.626 130.314 230.038 127.604 230.45 124.943C233.76 97.3232 245.59 71.9898 256.496 46.6562C243.766 72.7767 226.49 97.3233 220.119 125.83C217.396 102.083 213.748 78.3231 208.302 54.5761C212.849 79.1226 213.761 104.456 214.123 130.002C214.148 132.363 214.161 134.724 214.173 137.085C214.173 139.446 214.198 141.807 214.198 144.168C214.073 143.406 213.948 142.644 213.823 141.894C213.386 139.296 212.936 136.71 212.474 134.112C212.024 131.514 211.562 128.928 211.075 126.379C206.491 101.283 194.661 76.7492 186.479 52.2026C192.849 76.7492 201.944 101.283 203.817 126.829C204.055 129.078 204.28 131.351 204.492 133.612C204.704 135.886 204.917 138.147 205.129 140.42C204.417 138.459 203.68 136.498 202.93 134.549C202.181 132.6 201.381 130.664 200.569 128.728C195.56 117.123 189.202 106.83 179.196 97.3233C185.567 106.03 190.114 115.536 193.936 125.13C194.598 127.166 195.198 129.202 195.76 131.226C198.496 141.207 200.195 151.388 201.894 161.544C201.994 162.169 202.093 162.781 202.193 163.405C200.782 161.394 199.295 159.383 197.684 157.409C192.675 151.276 185.991 145.279 176.335 140.533C184.43 145.954 189.539 152.387 192.874 158.708C195.086 162.906 196.635 167.178 198.034 171.462C194.199 168.839 190.189 166.303 185.754 164.08C178.934 160.657 170.651 158.096 160.071 158.009V157.996Z" fill="#101024"/>
<path d="M206.316 172.412C215.11 173.449 221.681 176.159 226.69 179.357C230.8 181.98 234.06 185.016 237.296 188.039C237.745 188.451 238.182 188.876 238.62 189.288H275.671C275.87 189.038 276.058 188.788 276.258 188.539C278.943 185.153 281.654 181.756 285.214 178.645C289.561 174.86 295.483 171.375 303.74 169.239C294.271 170.55 287.101 173.386 281.342 176.684C278.818 178.133 276.483 179.657 274.259 181.218C274.434 180.719 274.596 180.219 274.771 179.707C276.832 173.836 278.906 167.94 282.216 162.168C286.264 155.123 292.472 147.94 302.291 141.907C290.548 147.203 282.441 153.874 276.358 160.719C273.335 164.117 270.661 167.577 268.188 171.063C268.463 169.364 268.75 167.665 269.037 165.966C271.099 153.936 273.172 141.869 276.483 130.039C280.53 115.599 286.738 100.908 296.557 88.5288C284.815 99.3717 276.707 113.05 270.624 127.066C267.538 134.174 264.815 141.419 262.292 148.702C262.217 147.653 262.142 146.603 262.067 145.554C261.18 133.974 260.181 122.407 258.794 111.114C256.983 96.3737 254.234 81.9331 249.662 70.3906C253.273 83.5071 255.096 98.947 255.971 114.087C256.683 126.492 256.82 139.108 256.958 151.688C256.995 155.173 257.02 158.671 257.02 162.168C256.908 161.606 256.795 161.044 256.67 160.482C254.185 148.964 251.524 137.459 248.288 126.254C244.054 111.626 238.432 97.3355 230.275 86.0304C237.108 98.947 241.418 114.287 244.229 129.352C246.077 139.258 247.364 149.314 248.551 159.395C247.214 156.485 245.802 153.599 244.278 150.751C239.582 141.994 233.323 133.462 224.254 126.691C231.837 134.424 236.633 143.593 239.756 152.6C242.317 159.982 243.916 167.515 245.503 175.023C245.603 175.485 245.69 175.934 245.79 176.397C244.466 174.91 243.067 173.424 241.555 171.962C236.858 167.415 230.6 162.98 221.531 159.47C229.113 163.48 233.91 168.239 237.033 172.924C239.107 176.034 240.556 179.195 241.88 182.355C238.282 180.407 234.522 178.545 230.375 176.896C223.979 174.36 216.209 172.474 206.291 172.399L206.316 172.412Z" fill="#101024"/>
<path d="M54.9018 186.265C63.696 187.302 70.2668 190.013 75.276 193.211C79.3858 195.834 82.6462 198.87 85.8816 201.893C86.3313 202.305 86.7685 202.729 87.2058 203.142H124.257C124.456 202.892 124.644 202.642 124.844 202.392C127.529 199.007 130.24 195.609 133.8 192.499C138.148 188.714 144.069 185.228 152.326 183.092C142.857 184.404 135.687 187.24 129.928 190.537C127.405 191.987 125.069 193.511 122.845 195.072C123.02 194.572 123.182 194.073 123.357 193.56C125.418 187.689 127.492 181.793 130.802 176.022C134.85 168.977 141.058 161.794 150.877 155.76C139.134 161.057 131.027 167.727 124.944 174.573C121.921 177.971 119.247 181.431 116.774 184.916C117.049 183.217 117.336 181.518 117.623 179.819C119.685 167.79 121.758 155.723 125.069 143.893C129.116 129.452 135.324 114.762 145.143 102.382C133.401 113.225 125.293 126.904 119.21 140.92C116.124 148.028 113.401 155.273 110.878 162.556C110.803 161.506 110.728 160.457 110.653 159.408C109.766 147.828 108.767 136.26 107.38 124.968C105.569 110.227 102.821 95.7866 98.2486 84.2441C101.859 97.3606 103.683 112.801 104.557 127.941C105.269 140.345 105.406 152.962 105.544 165.541C105.581 169.026 105.606 172.524 105.606 176.022C105.494 175.46 105.381 174.898 105.256 174.335C102.771 162.818 100.11 151.313 96.8745 140.108C92.6397 125.48 87.0183 111.189 78.8612 99.884C85.6942 112.801 90.0039 128.141 92.8146 143.206C94.6634 153.112 95.95 163.168 97.1368 173.249C95.8001 170.338 94.3886 167.452 92.8646 164.604C88.1676 155.848 81.9092 147.316 72.8401 140.545C80.4227 148.277 85.2195 157.446 88.3425 166.453C90.9033 173.836 92.5023 181.368 94.0887 188.876C94.1887 189.338 94.2761 189.788 94.3761 190.25C93.0519 188.764 91.6528 187.277 90.1413 185.816C85.4444 181.268 79.1859 176.834 70.1169 173.324C77.6994 177.334 82.4963 182.093 85.6193 186.777C87.6929 189.888 89.142 193.048 90.4661 196.209C86.8685 194.26 83.1084 192.399 78.9611 190.75C72.5653 188.214 64.7953 186.328 54.8768 186.253L54.9018 186.265Z" fill="#101024"/>
<path d="M297.256 192.948C306.051 194.572 312.621 198.782 317.631 203.766C321.741 207.851 325.001 212.573 328.236 217.283C328.686 217.932 329.123 218.582 329.56 219.231H366.611C366.811 218.844 366.999 218.457 367.198 218.07C369.884 212.785 372.595 207.501 376.155 202.655C380.502 196.758 386.423 191.312 394.681 188.002C385.212 190.05 378.041 194.472 372.283 199.607C369.759 201.855 367.423 204.229 365.2 206.664C365.375 205.877 365.537 205.103 365.712 204.316C367.773 195.159 369.847 185.978 373.157 176.984C377.204 166.003 383.413 154.823 393.231 145.404C381.489 153.649 373.382 164.067 367.298 174.723C364.275 180.019 361.602 185.403 359.129 190.837C359.404 188.189 359.691 185.541 359.978 182.892C362.039 164.142 364.113 145.342 367.423 126.904C371.471 104.406 377.679 81.5084 387.498 62.221C375.755 79.11 367.648 100.434 361.565 122.282C358.479 133.362 355.756 144.642 353.232 155.985C353.158 154.348 353.083 152.712 353.008 151.088C352.121 133.05 351.121 115.012 349.735 97.423C347.923 74.4505 345.175 51.9651 340.603 33.9644C344.213 54.4011 346.037 78.4729 346.912 102.045C347.624 121.37 347.761 141.032 347.899 160.644C347.936 166.078 347.961 171.525 347.961 176.971C347.849 176.097 347.736 175.222 347.611 174.348C345.125 156.397 342.465 138.471 339.229 121.008C334.994 98.21 329.373 75.9495 321.216 58.3235C328.049 78.4604 332.359 102.357 335.169 125.83C337.018 141.257 338.305 156.934 339.491 172.637C338.155 168.115 336.743 163.605 335.219 159.17C330.522 145.529 324.264 132.225 315.195 121.682C322.777 133.724 327.574 148.015 330.697 162.056C333.258 173.561 334.857 185.303 336.443 197.008C336.543 197.72 336.631 198.432 336.731 199.157C335.407 196.833 334.008 194.522 332.496 192.249C327.799 185.166 321.541 178.258 312.472 172.786C320.054 179.032 324.851 186.453 327.974 193.748C330.048 198.595 331.497 203.516 332.821 208.451C329.223 205.415 325.463 202.505 321.316 199.944C314.92 195.996 307.15 193.048 297.231 192.936L297.256 192.948Z" fill="#101024"/>
<path d="M239.519 201.081C250.287 202.355 258.344 205.665 264.478 209.588C269.512 212.798 273.497 216.508 277.469 220.218C278.019 220.73 278.556 221.242 279.093 221.755H324.476C324.714 221.455 324.951 221.142 325.188 220.843C328.486 216.695 331.797 212.536 336.156 208.726C341.49 204.091 348.735 199.819 358.854 197.208C347.261 198.82 338.48 202.292 331.422 206.34C328.336 208.113 325.463 209.975 322.74 211.886C322.952 211.274 323.165 210.662 323.377 210.037C325.9 202.842 328.436 195.622 332.509 188.551C337.468 179.919 345.063 171.125 357.105 163.73C342.727 170.213 332.796 178.395 325.351 186.777C321.653 190.937 318.38 195.172 315.332 199.444C315.67 197.358 316.019 195.284 316.369 193.198C318.892 178.458 321.428 163.68 325.501 149.189C330.46 131.513 338.055 113.513 350.097 98.3475C335.719 111.626 325.788 128.378 318.343 145.554C314.558 154.261 311.235 163.13 308.137 172.05C308.049 170.763 307.962 169.476 307.862 168.202C306.775 154.024 305.551 139.845 303.852 126.029C301.629 107.979 298.256 90.2902 292.672 76.1494C297.094 92.214 299.33 111.127 300.392 129.665C301.266 144.855 301.441 160.307 301.604 175.722C301.654 179.994 301.679 184.279 301.691 188.564C301.541 187.877 301.404 187.19 301.266 186.503C298.218 172.399 294.958 158.296 290.998 144.58C285.814 126.654 278.918 109.165 268.925 95.3119C277.295 111.139 282.566 129.927 286.014 148.377C288.275 160.507 289.861 172.824 291.298 185.166C289.661 181.606 287.938 178.071 286.064 174.573C280.305 163.855 272.648 153.387 261.542 145.105C270.836 154.573 276.695 165.804 280.53 176.846C283.665 185.89 285.627 195.109 287.575 204.316C287.7 204.878 287.813 205.44 287.925 206.002C286.301 204.179 284.59 202.367 282.741 200.568C276.982 195.01 269.325 189.576 258.219 185.278C267.513 190.188 273.372 196.021 277.207 201.755C279.755 205.565 281.517 209.438 283.141 213.31C278.731 210.924 274.134 208.638 269.037 206.627C261.205 203.529 251.686 201.205 239.544 201.118L239.519 201.081Z" fill="#101024"/>
<path d="M3.53522 163.08C14.3032 164.354 22.3605 167.665 28.494 171.587C33.5282 174.798 37.5131 178.508 41.4855 182.218C42.0352 182.73 42.5723 183.242 43.1094 183.754H88.4924C88.7298 183.455 88.9671 183.142 89.2044 182.842C92.5023 178.695 95.8126 174.535 100.172 170.725C105.506 166.091 112.752 161.819 122.87 159.208C111.278 160.819 102.496 164.292 95.4379 168.339C92.3524 170.113 89.4793 171.975 86.756 173.886C86.9684 173.274 87.1808 172.662 87.3931 172.037C89.9165 164.842 92.4523 157.621 96.5247 150.551C101.484 141.919 109.079 133.125 121.121 125.73C106.743 132.213 96.812 140.395 89.3668 148.777C85.6692 152.937 82.3964 157.172 79.3484 161.444C79.6856 159.358 80.0354 157.284 80.3852 155.198C82.9085 140.458 85.4444 125.68 89.5167 111.189C94.476 93.5131 102.071 75.5123 114.113 60.3472C99.7351 73.626 89.8041 90.3777 82.3589 107.554C78.5739 116.261 75.251 125.13 72.153 134.049C72.0656 132.763 71.9781 131.476 71.8782 130.202C70.7914 116.023 69.5672 101.845 67.8683 88.0292C65.6448 69.9784 62.272 52.29 56.6881 38.1492C61.1102 54.2137 63.3463 73.1264 64.4081 91.6643C65.2825 106.854 65.4574 122.307 65.6198 137.722C65.6698 141.994 65.6947 146.279 65.7072 150.563C65.5573 149.876 65.4199 149.189 65.2825 148.502C62.2345 134.399 58.9741 120.296 55.0142 106.58C49.8301 88.6538 42.9346 71.1651 32.9411 57.3117C41.3106 73.1388 46.5822 91.9267 50.0299 110.377C52.291 122.507 53.8775 134.824 55.314 147.166C53.6776 143.605 51.9537 140.07 50.0799 136.573C44.3212 125.855 36.6637 115.386 25.5584 107.104C34.8523 116.573 40.711 127.803 44.546 138.846C47.6815 147.89 49.6427 157.109 51.5914 166.316C51.7164 166.878 51.8288 167.44 51.9412 168.002C50.3173 166.178 48.6059 164.367 46.7571 162.568C40.9983 157.009 33.3408 151.575 22.2355 147.278C31.5295 152.187 37.3882 158.021 41.2232 163.755C43.7715 167.565 45.5329 171.437 47.1568 175.31C42.7472 172.924 38.1502 170.638 33.0535 168.627C25.2211 165.529 15.7023 163.205 3.56019 163.118L3.53522 163.08Z" fill="#101024"/>
<path d="M125.493 161.007C133.838 162.156 140.084 165.142 144.831 168.689C148.728 171.587 151.826 174.935 154.899 178.283C155.324 178.745 155.736 179.207 156.148 179.67H191.313C191.5 179.395 191.675 179.12 191.863 178.845C194.411 175.098 196.984 171.35 200.37 167.915C204.504 163.73 210.113 159.87 217.958 157.522C208.976 158.971 202.168 162.106 196.697 165.754C194.299 167.353 192.087 169.039 189.964 170.763C190.126 170.213 190.289 169.651 190.451 169.101C192.4 162.606 194.373 156.097 197.521 149.714C201.369 141.919 207.253 133.987 216.584 127.304C205.441 133.15 197.746 140.545 191.975 148.103C189.102 151.863 186.579 155.685 184.218 159.533C184.48 157.659 184.742 155.773 185.03 153.899C186.978 140.595 188.952 127.254 192.1 114.175C195.947 98.2226 201.831 81.9707 211.163 68.2921C200.02 80.2718 192.325 95.3995 186.554 110.902C183.63 118.759 181.045 126.767 178.646 134.811C178.584 133.65 178.509 132.488 178.434 131.339C177.597 118.534 176.647 105.743 175.323 93.2759C173.599 76.974 170.989 61.0218 166.654 48.2551C170.077 62.7457 171.813 79.8221 172.638 96.5487C173.312 110.252 173.45 124.206 173.575 138.122C173.612 141.982 173.637 145.842 173.637 149.702C173.525 149.077 173.412 148.452 173.3 147.84C170.939 135.111 168.415 122.382 165.342 110.002C161.332 93.8255 155.986 78.0358 148.241 65.5314C154.724 79.8096 158.809 96.7735 161.482 113.425C163.231 124.368 164.468 135.498 165.58 146.629C164.318 143.418 162.969 140.22 161.52 137.072C157.06 127.404 151.127 117.96 142.52 110.477C149.715 119.022 154.262 129.165 157.235 139.121C159.671 147.278 161.183 155.61 162.694 163.917C162.782 164.43 162.869 164.929 162.969 165.441C161.72 163.792 160.383 162.156 158.947 160.532C154.487 155.51 148.553 150.614 139.946 146.729C147.142 151.163 151.689 156.422 154.662 161.594C156.636 165.029 158.01 168.527 159.259 172.025C155.849 169.876 152.276 167.802 148.341 165.991C142.27 163.193 134.9 161.107 125.493 161.019V161.007Z" fill="#101024"/>
<path d="M354.482 182.98C368.01 190.325 387.073 197.995 381.826 214.334H404.212C403.138 198.795 421.588 193.536 435.079 188.002C423.612 187.777 412.144 191.3 404.462 197.808C404.874 195.422 405.474 193.061 406.298 190.737C409.271 182.418 415.267 174.66 424.036 169.451C431.482 165.029 441.013 162.593 450.332 163.143C441.712 159.608 430.695 159.807 421.85 163.105C414.693 165.766 408.871 170.163 404.424 175.335C408.509 160.432 414.005 145.692 421.551 133.1C411.295 145.867 403.8 162.193 397.916 179.007C397.779 179.407 397.641 179.794 397.504 180.194C396.654 169.426 395.468 158.658 393.756 147.878C390.733 128.84 385.761 110.065 374.694 93.6631C377.679 101.495 379.903 109.603 381.951 117.585C385.387 131.001 387.698 144.592 389.197 158.271C389.871 164.429 390.396 170.6 390.821 176.771C389.272 171.962 387.61 167.178 385.774 162.443C380.153 147.89 372.395 133.587 360.665 122.032C370.309 135.074 376.005 150.326 379.465 165.216C380.527 169.801 381.402 174.41 382.151 179.032C380.815 177.796 379.378 176.672 377.817 175.697C371.521 171.775 363.313 170.788 356.555 173.686C363.563 173.811 370.446 176.921 375.58 181.856C379.753 185.866 382.813 190.987 384.787 196.559C377.891 189.063 366.474 184.117 354.457 182.955L354.482 182.98Z" fill="#101024"/>
<path d="M113.089 162.655C123.07 172.562 137.123 182.905 133.413 205.053L149.84 204.978C148.916 183.917 162.419 176.734 172.275 169.189C163.856 168.926 155.474 173.736 149.89 182.593C150.165 179.357 150.589 176.147 151.177 172.999C153.288 161.719 157.622 151.175 164.018 144.08C169.44 138.059 176.423 134.736 183.268 135.448C176.922 130.689 168.828 130.989 162.369 135.486C157.135 139.121 152.9 145.092 149.678 152.112C152.551 131.913 156.461 111.914 161.895 94.8247C154.474 112.151 149.103 134.324 144.943 157.134C144.843 157.671 144.756 158.208 144.656 158.746C143.944 144.155 142.982 129.577 141.633 114.974C139.247 89.1908 135.449 63.7574 127.192 41.5593C129.441 52.1774 131.14 63.1328 132.714 73.9507C135.349 92.1139 137.148 110.539 138.372 129.065C138.922 137.409 139.359 145.766 139.722 154.136C138.547 147.628 137.286 141.145 135.899 134.736C131.652 115.024 125.843 95.6741 117.136 80.0468C124.319 97.6978 128.629 118.347 131.29 138.521C132.114 144.73 132.789 150.976 133.376 157.246C132.376 155.573 131.315 154.049 130.165 152.749C125.518 147.453 119.485 146.154 114.55 150.101C119.697 150.239 124.769 154.436 128.579 161.107C131.664 166.528 133.963 173.448 135.462 181.006C130.34 170.875 121.921 164.217 113.089 162.668V162.655Z" fill="#101024"/>
<path d="M1152.3 305.8C1161.09 306.837 1167.66 309.547 1172.67 312.745C1176.78 315.369 1180.04 318.404 1183.28 321.427C1183.73 321.839 1184.17 322.264 1184.6 322.676H1221.65C1221.85 322.426 1222.04 322.177 1222.24 321.927C1224.93 318.541 1227.64 315.144 1231.2 312.033C1235.55 308.248 1241.47 304.763 1249.72 302.627C1240.25 303.939 1233.08 306.774 1227.33 310.072C1224.8 311.521 1222.47 313.045 1220.24 314.607C1220.42 314.107 1220.58 313.607 1220.76 313.095C1222.82 307.224 1224.89 301.328 1228.2 295.556C1232.25 288.511 1238.46 281.328 1248.27 275.295C1236.53 280.591 1228.43 287.262 1222.34 294.107C1219.32 297.505 1216.65 300.965 1214.17 304.451C1214.45 302.752 1214.73 301.053 1215.02 299.354C1217.08 287.324 1219.16 275.257 1222.47 263.427C1226.51 248.987 1232.72 234.296 1242.54 221.917C1230.8 232.76 1222.69 246.438 1216.61 260.454C1213.52 267.562 1210.8 274.807 1208.28 282.09C1208.2 281.041 1208.13 279.992 1208.05 278.942C1207.16 267.362 1206.16 255.795 1204.78 244.502C1202.97 229.762 1200.22 215.321 1195.65 203.779C1199.26 216.895 1201.08 232.335 1201.95 247.475C1202.67 259.88 1202.8 272.496 1202.94 285.076C1202.98 288.561 1203 292.059 1203 295.556C1202.89 294.994 1202.78 294.432 1202.65 293.87C1200.17 282.353 1197.51 270.848 1194.27 259.642C1190.04 245.014 1184.42 230.724 1176.26 219.418C1183.09 232.335 1187.4 247.675 1190.21 262.74C1192.06 272.646 1193.35 282.702 1194.53 292.783C1193.2 289.873 1191.79 286.987 1190.26 284.139C1185.57 275.382 1179.31 266.85 1170.24 260.08C1177.82 267.812 1182.62 276.981 1185.74 285.988C1188.3 293.37 1189.9 300.903 1191.49 308.411C1191.59 308.873 1191.67 309.323 1191.77 309.785C1190.45 308.298 1189.05 306.812 1187.54 305.35C1182.84 300.803 1176.58 296.368 1167.51 292.858C1175.1 296.868 1179.89 301.628 1183.02 306.312C1185.09 309.422 1186.54 312.583 1187.86 315.743C1184.27 313.795 1180.51 311.933 1176.36 310.284C1169.96 307.749 1162.19 305.862 1152.27 305.787L1152.3 305.8Z" fill="#101024"/>
<path d="M1568.49 144.342C1577.29 145.404 1583.86 148.177 1588.87 151.45C1592.98 154.136 1596.24 157.234 1599.47 160.332C1599.92 160.757 1600.36 161.181 1600.8 161.619H1637.85C1638.05 161.369 1638.23 161.107 1638.43 160.857C1641.12 157.384 1643.83 153.911 1647.39 150.738C1651.74 146.866 1657.66 143.293 1665.92 141.107C1656.45 142.456 1649.28 145.354 1643.52 148.74C1640.99 150.214 1638.66 151.775 1636.43 153.374C1636.61 152.862 1636.77 152.35 1636.95 151.838C1639.01 145.816 1641.08 139.795 1644.39 133.874C1648.44 126.654 1654.65 119.309 1664.47 113.125C1652.72 118.547 1644.62 125.38 1638.53 132.388C1635.51 135.873 1632.84 139.408 1630.36 142.968C1630.64 141.232 1630.93 139.483 1631.21 137.747C1633.27 125.43 1635.35 113.075 1638.66 100.958C1642.71 86.1803 1648.91 71.1401 1658.73 58.4608C1646.99 69.5536 1638.88 83.5695 1632.8 97.9227C1629.71 105.205 1626.99 112.613 1624.47 120.071C1624.39 118.996 1624.32 117.922 1624.24 116.848C1623.36 104.993 1622.36 93.1508 1620.97 81.5958C1619.16 66.5056 1616.41 51.7277 1611.84 39.8979C1615.45 53.3267 1617.27 69.1414 1618.15 84.6313C1618.86 97.3231 1619 110.24 1619.13 123.131C1619.17 126.704 1619.2 130.277 1619.2 133.862C1619.08 133.287 1618.97 132.713 1618.85 132.138C1616.36 120.346 1613.7 108.566 1610.46 97.0983C1606.23 82.1205 1600.61 67.4925 1592.45 55.9125C1599.28 69.1414 1603.59 84.8437 1606.4 100.271C1608.25 110.415 1609.54 120.708 1610.73 131.026C1609.39 128.053 1607.98 125.092 1606.45 122.169C1601.76 113.213 1595.5 104.468 1586.43 97.5354C1594.01 105.443 1598.81 114.837 1601.93 124.068C1604.49 131.626 1606.09 139.333 1607.68 147.028C1607.78 147.503 1607.87 147.965 1607.97 148.44C1606.64 146.916 1605.24 145.392 1603.73 143.893C1599.03 139.246 1592.78 134.699 1583.71 131.114C1591.29 135.223 1596.09 140.095 1599.21 144.88C1601.28 148.065 1602.73 151.3 1604.06 154.536C1600.46 152.55 1596.7 150.626 1592.55 148.94C1586.15 146.341 1578.38 144.405 1568.47 144.342H1568.49Z" fill="#101024"/>
<path d="M1926.95 127.266C1924.8 129.914 1922.77 132.588 1920.86 135.273C1921.2 133.187 1921.55 131.113 1921.9 129.027C1923.46 119.921 1925.02 110.814 1926.95 101.758V74.6128C1925.87 76.8613 1924.85 79.1098 1923.86 81.3833C1920.07 90.0902 1916.75 98.9594 1913.65 107.879C1913.57 106.592 1913.48 105.305 1913.38 104.031C1912.29 89.8528 1911.07 75.6745 1909.37 61.8585C1907.15 43.8078 1903.77 26.1193 1898.19 11.9785C1902.61 28.0431 1904.85 46.9557 1905.91 65.4936C1906.78 80.6837 1906.96 96.1362 1907.12 111.551C1907.17 115.823 1907.2 120.108 1907.21 124.393C1907.07 123.706 1906.92 123.019 1906.78 122.332C1903.74 108.228 1900.48 94.125 1896.52 80.4089C1891.33 62.4831 1884.44 44.9945 1874.44 31.141C1882.81 46.9682 1888.08 65.756 1891.53 84.2065C1893.79 96.3361 1895.38 108.653 1896.81 120.995C1895.18 117.435 1893.45 113.9 1891.58 110.402C1885.82 99.6839 1878.16 89.2158 1867.06 80.9336C1876.35 90.4025 1882.21 101.633 1886.05 112.675C1889.18 121.72 1891.14 130.939 1893.09 140.145C1893.22 140.707 1893.33 141.269 1893.44 141.831C1891.82 140.008 1890.11 138.196 1888.26 136.397C1882.5 130.839 1874.84 125.405 1863.74 121.107C1873.03 126.017 1878.89 131.85 1882.72 137.584C1885.27 141.394 1887.03 145.267 1888.66 149.139C1884.25 146.753 1879.65 144.467 1874.55 142.456C1866.72 139.358 1857.2 137.035 1845.06 136.947C1855.83 138.221 1863.89 141.532 1870.02 145.454C1875.05 148.665 1879.04 152.375 1883.01 156.085C1883.56 156.597 1884.1 157.109 1884.64 157.621H1926.96V127.291L1926.95 127.266Z" fill="#101024"/>
<path d="M1731.76 132.7C1742.58 131.975 1751.11 133.749 1757.86 136.473C1763.39 138.709 1768 141.619 1772.58 144.53C1773.21 144.93 1773.83 145.329 1774.46 145.742L1819.07 137.397C1819.24 137.047 1819.42 136.71 1819.6 136.36C1822.08 131.676 1824.56 126.979 1828.16 122.432C1832.54 116.885 1838.88 111.364 1848.35 106.929C1837.24 110.639 1829.25 115.674 1823.05 120.945C1820.34 123.256 1817.87 125.617 1815.54 128.003C1815.63 127.366 1815.73 126.716 1815.83 126.079C1816.98 118.547 1818.15 110.977 1820.85 103.282C1824.14 93.8877 1830 83.8443 1840.46 74.3505C1827.52 83.3696 1819.27 93.2382 1813.48 102.844C1810.61 107.616 1808.17 112.388 1805.97 117.135C1805.92 115.024 1805.89 112.913 1805.85 110.814C1805.61 95.8615 1805.39 80.8712 1806.72 65.881C1808.35 47.5929 1812.51 28.5054 1821.54 11.379C1809.85 27.0688 1803.18 45.3693 1799 63.6199C1796.89 72.8764 1795.24 82.2079 1793.84 91.5393C1793.52 90.2901 1793.2 89.0409 1792.87 87.8043C1789.2 74.0632 1785.39 60.3596 1781.17 47.0807C1775.66 29.742 1769.1 12.978 1760.99 0.111328C1768.29 15.0891 1773.97 33.2647 1778.43 51.2905C1782.09 66.0559 1785.1 81.221 1788.1 96.3361C1788.94 100.533 1789.75 104.731 1790.53 108.94C1790.27 108.291 1790 107.641 1789.73 106.992C1784.14 93.6879 1778.34 80.4341 1771.92 67.6674C1763.53 51.0032 1753.53 35.0761 1741.17 23.2962C1752.3 37.3121 1760.94 54.8007 1767.72 72.3143C1772.18 83.8193 1776.01 95.6366 1779.69 107.504C1777.43 104.306 1775.08 101.146 1772.6 98.06C1764.96 88.5787 1755.51 79.7095 1743.08 73.6134C1753.96 81.2085 1761.79 91.1771 1767.57 101.32C1772.32 109.628 1775.94 118.334 1779.55 127.029C1779.78 127.553 1779.99 128.091 1780.2 128.615C1778.28 127.116 1776.26 125.655 1774.11 124.231C1767.42 119.821 1758.89 115.898 1747.19 113.712C1757.23 116.835 1764.06 121.482 1768.89 126.417C1772.08 129.689 1774.53 133.175 1776.84 136.685C1772.07 135.148 1767.12 133.749 1761.75 132.7C1753.48 131.089 1743.7 130.564 1731.75 132.712L1731.76 132.7Z" fill="#101024"/>
<path d="M1100.93 282.615C1111.7 283.889 1119.76 287.199 1125.89 291.122C1130.93 294.332 1134.91 298.042 1138.88 301.752C1139.43 302.265 1139.97 302.777 1140.51 303.289H1185.89C1186.13 302.989 1186.37 302.677 1186.6 302.377C1189.9 298.23 1193.21 294.07 1197.57 290.26C1202.9 285.626 1210.15 281.353 1220.27 278.743C1208.68 280.354 1199.89 283.827 1192.84 287.874C1189.75 289.648 1186.88 291.509 1184.15 293.421C1184.37 292.808 1184.58 292.196 1184.79 291.572C1187.31 284.376 1189.85 277.156 1193.92 270.086C1198.88 261.454 1206.48 252.659 1218.52 245.264C1204.14 251.748 1194.21 259.93 1186.76 268.312C1183.07 272.472 1179.79 276.706 1176.75 280.979C1177.08 278.892 1177.43 276.819 1177.78 274.733C1180.31 259.992 1182.84 245.214 1186.91 230.724C1191.87 213.048 1199.47 195.047 1211.51 179.882C1197.13 193.161 1187.2 209.912 1179.76 227.089C1175.97 235.795 1172.65 244.665 1169.55 253.584C1169.46 252.297 1169.38 251.011 1169.28 249.736C1168.19 235.558 1166.97 221.38 1165.27 207.564C1163.04 189.513 1159.67 171.825 1154.09 157.684C1158.51 173.748 1160.74 192.661 1161.81 211.199C1162.68 226.389 1162.86 241.841 1163.02 257.256C1163.07 261.529 1163.09 265.813 1163.11 270.098C1162.96 269.411 1162.82 268.724 1162.68 268.037C1159.63 253.934 1156.37 239.83 1152.41 226.114C1147.23 208.188 1140.33 190.7 1130.34 176.846C1138.71 192.674 1143.98 211.461 1147.43 229.912C1149.69 242.041 1151.28 254.358 1152.71 266.7C1151.08 263.14 1149.35 259.605 1147.48 256.107C1141.72 245.389 1134.06 234.921 1122.96 226.639C1132.25 236.108 1138.11 247.338 1141.94 258.381C1145.08 267.425 1147.04 276.644 1148.99 285.85C1149.11 286.413 1149.23 286.975 1149.34 287.537C1147.72 285.713 1146 283.902 1144.16 282.103C1138.4 276.544 1130.74 271.11 1119.63 266.813C1128.93 271.722 1134.79 277.556 1138.62 283.289C1141.17 287.099 1142.93 290.972 1144.55 294.844C1140.15 292.459 1135.55 290.173 1130.45 288.161C1122.62 285.063 1113.1 282.74 1100.96 282.652L1100.93 282.615Z" fill="#101024"/>
<path d="M1210.6 264.002C1218.94 265.151 1225.19 268.137 1229.94 271.685C1233.83 274.583 1236.93 277.93 1240.01 281.278C1240.43 281.74 1240.84 282.203 1241.25 282.665H1276.42C1276.61 282.39 1276.78 282.115 1276.97 281.841C1279.52 278.093 1282.09 274.345 1285.48 270.91C1289.61 266.725 1295.22 262.865 1303.06 260.517C1294.08 261.966 1287.27 265.101 1281.8 268.749C1279.4 270.348 1277.19 272.034 1275.07 273.758C1275.23 273.209 1275.39 272.646 1275.56 272.097C1277.51 265.601 1279.48 259.093 1282.63 252.709C1286.48 244.914 1292.36 236.982 1301.69 230.299C1290.55 236.145 1282.85 243.54 1277.08 251.098C1274.21 254.858 1271.68 258.68 1269.32 262.528C1269.59 260.654 1269.85 258.768 1270.14 256.894C1272.08 243.59 1274.06 230.249 1277.21 217.17C1281.05 201.218 1286.94 184.966 1296.27 171.287C1285.13 183.267 1277.43 198.395 1271.66 213.897C1268.74 221.755 1266.15 229.762 1263.75 237.807C1263.69 236.645 1263.61 235.483 1263.54 234.334C1262.7 221.53 1261.75 208.738 1260.43 196.271C1258.71 179.969 1256.09 164.017 1251.76 151.25C1255.18 165.741 1256.92 182.817 1257.74 199.544C1258.42 213.248 1258.56 227.201 1258.68 241.117C1258.72 244.977 1258.74 248.837 1258.74 252.697C1258.63 252.072 1258.52 251.448 1258.41 250.836C1256.04 238.106 1253.52 225.377 1250.45 212.998C1246.44 196.821 1241.09 181.031 1233.35 168.527C1239.83 182.805 1243.92 199.769 1246.59 216.421C1248.34 227.363 1249.57 238.494 1250.69 249.624C1249.42 246.414 1248.07 243.216 1246.63 240.068C1242.17 230.399 1236.23 220.955 1227.63 213.473C1234.82 222.017 1239.37 232.16 1242.34 242.116C1244.78 250.274 1246.29 258.606 1247.8 266.913C1247.89 267.425 1247.98 267.925 1248.07 268.437C1246.83 266.788 1245.49 265.151 1244.05 263.527C1239.59 258.506 1233.66 253.609 1225.05 249.724C1232.25 254.158 1236.79 259.418 1239.77 264.589C1241.74 268.024 1243.12 271.522 1244.36 275.02C1240.95 272.871 1237.38 270.798 1233.45 268.986C1227.38 266.188 1220.01 264.102 1210.6 264.015V264.002Z" fill="#101024"/>
<path d="M920.426 312.645C930.407 318.579 944.46 324.775 940.75 338.054L957.177 338.004C956.252 325.387 969.756 321.077 979.612 316.555C971.193 316.393 962.811 319.278 957.227 324.588C957.502 322.651 957.926 320.728 958.513 318.841C960.625 312.083 964.959 305.762 971.355 301.515C976.777 297.905 983.76 295.919 990.605 296.343C984.259 293.495 976.165 293.67 969.706 296.368C964.472 298.542 960.237 302.127 957.014 306.337C959.888 294.232 963.798 282.253 969.232 272.009C961.811 282.39 956.44 295.681 952.28 309.348C952.18 309.672 952.093 309.997 951.993 310.309C951.281 301.565 950.319 292.833 948.97 284.076C946.584 268.624 942.786 253.384 934.529 240.093C936.778 246.451 938.476 253.022 940.05 259.505C942.686 270.385 944.485 281.428 945.709 292.533C946.259 297.53 946.696 302.539 947.058 307.549C945.884 303.651 944.622 299.766 943.236 295.919C938.989 284.114 933.18 272.509 924.473 263.152C931.656 273.733 935.966 286.1 938.626 298.192C939.451 301.915 940.125 305.662 940.713 309.41C939.713 308.398 938.651 307.499 937.502 306.712C932.855 303.539 926.822 302.752 921.887 305.125C927.034 305.213 932.106 307.723 935.916 311.721C939.001 314.969 941.3 319.116 942.799 323.651C937.677 317.58 929.258 313.595 920.426 312.67V312.645Z" fill="#101024"/>
</svg>
